<svg width="32" height="32" viewBox="0 0 32 32" fill="none" xmlns="http://www.w3.org/2000/svg">
<path fill-rule="evenodd" clip-rule="evenodd" d="M6.57591 4.24356C9.20322 2.91388 12.4384 2 15.9167 2C19.2174 2 22.5663 2.87237 25.2009 4.20577C25.6119 4.41376 25.7764 4.91553 25.5685 5.3265C25.3605 5.73747 24.8587 5.90202 24.4477 5.69403C22.0368 4.47385 18.945 3.668 15.9167 3.668C12.7262 3.668 9.74742 4.50791 7.32912 5.73181C6.91815 5.9398 6.41638 5.77526 6.20839 5.36429C6.0004 4.95332 6.16494 4.45155 6.57591 4.24356ZM8.22446 7.14133C10.4999 6.07916 13.4278 5.51391 15.9058 5.51391C18.3873 5.51391 21.242 6.08047 23.5146 7.14133C26.048 8.3239 28.1675 10.0404 29.6196 12.0572C29.8887 12.431 29.8039 12.9522 29.4301 13.2213C29.0563 13.4904 28.5351 13.4056 28.266 13.0318C26.9976 11.2702 25.112 9.72779 22.8091 8.65277C20.7808 7.70598 18.1708 7.18191 15.9058 7.18191C13.6374 7.18191 10.9555 7.70728 8.92999 8.65277C6.72449 9.68229 4.74754 11.3384 3.51269 13.067C3.24496 13.4418 2.72408 13.5286 2.34928 13.2609C1.97448 12.9931 1.88769 12.4723 2.15543 12.0975C3.56547 10.1236 5.77182 8.28622 8.22446 7.14133ZM15.7859 8.95228C20.6384 8.90563 24.8686 11.4045 27.0135 14.9877C28.1389 16.8677 28.5299 18.7566 28.5299 20.3657C28.5299 23.0581 26.068 24.7514 23.8419 24.7514C22.7227 24.7514 21.54 24.4519 20.6064 23.7399C19.6471 23.0085 19.0107 21.8843 18.9654 20.391C18.9365 19.4357 18.4965 18.7979 17.8962 18.3737C17.2681 17.9299 16.46 17.7236 15.794 17.7236C13.9854 17.7236 12.6984 19.0565 12.6984 20.3657C12.6984 21.4119 13.0253 22.8725 13.4575 23.8425C13.8947 24.8239 14.6781 25.9662 15.4467 26.6618L15.4547 26.669L15.4624 26.6764C16.7097 27.8646 18.2728 28.9257 20.5635 29.4474C21.0126 29.5497 21.2937 29.9967 21.1915 30.4458C21.0892 30.8949 20.6422 31.1761 20.1931 31.0738C17.5516 30.4721 15.7316 29.2348 14.3195 27.8913C13.3548 27.0154 12.4482 25.6758 11.9339 24.5213C11.413 23.3523 11.0304 21.6613 11.0304 20.3657C11.0304 17.9722 13.2362 16.0556 15.794 16.0556C16.7526 16.0556 17.9093 16.3406 18.8587 17.0114C19.8358 17.7018 20.5861 18.802 20.6327 20.3405C20.663 21.3409 21.0657 21.9926 21.6177 22.4135C22.1954 22.854 22.9964 23.0834 23.8419 23.0834C25.3969 23.0834 26.8619 21.9052 26.8619 20.3657C26.8619 19.0277 26.5377 17.4405 25.5823 15.8444C23.75 12.7834 20.0787 10.5791 15.802 10.6202C12.0948 10.6559 8.14307 12.4061 6.12002 15.8048C5.25707 17.2546 4.8243 18.9114 4.87677 20.6428C4.94858 23.0126 5.29581 24.0132 5.91907 25.663C6.08185 26.0939 5.86451 26.5752 5.43362 26.738C5.00274 26.9007 4.52148 26.6834 4.3587 26.2525C3.69731 24.5018 3.28886 23.3109 3.20953 20.6933C3.1475 18.6463 3.66048 16.6758 4.68672 14.9517C7.0718 10.9448 11.6341 8.99221 15.7859 8.95228ZM7.13869 20.2068C7.14369 15.9054 11.2911 12.5039 15.794 12.5039C20.2748 12.5039 24.6004 15.586 24.6004 20.4791C24.6004 20.9397 24.227 21.3131 23.7664 21.3131C23.3058 21.3131 22.9324 20.9397 22.9324 20.4791C22.9324 16.7575 19.6256 14.1719 15.794 14.1719C11.9871 14.1719 8.80668 17.0385 8.80668 20.2146V20.2222L8.80654 20.2299C8.77462 21.9742 9.05268 23.6431 9.96257 25.4278C10.8885 27.2441 12.0023 28.4787 13.02 29.3746C13.3658 29.679 13.3993 30.206 13.095 30.5517C12.7906 30.8975 12.2636 30.931 11.9179 30.6267C10.7734 29.6191 9.51536 28.2231 8.47654 26.1854C7.423 24.1189 7.10361 22.1728 7.13869 20.2068ZM15.794 19.5317C16.2546 19.5317 16.628 19.9051 16.628 20.3657C16.628 21.4139 16.9158 22.4056 17.4607 23.3492C17.988 24.2619 18.6746 24.9194 19.6104 25.4863C20.9665 26.2264 21.9064 26.4828 23.3294 26.4465L23.3352 26.4463L23.3409 26.4463C23.8974 26.4397 24.552 26.3938 25.0713 26.3032C25.5251 26.224 25.9571 26.5277 26.0362 26.9815C26.1154 27.4352 25.8117 27.8672 25.3579 27.9464C24.7258 28.0566 23.9794 28.1066 23.3662 28.1141C21.6042 28.1583 20.3751 27.8061 18.7942 26.9411L18.7788 26.9327L18.7638 26.9236C17.6163 26.2316 16.7076 25.3802 16.0164 24.1834C15.3401 23.0126 14.96 21.7358 14.96 20.3657C14.96 19.9051 15.3334 19.5317 15.794 19.5317Z" fill="#F04405"/>
</svg>
